<svg version="1.1" id="Layer_1" xmlns="http://www.w3.org/2000/svg" xmlns:xlink="http://www.w3.org/1999/xlink" x="0px" y="0px"
	 width="100%" viewBox="0 0 1312 1087" enable-background="new 0 0 1312 1087" xml:space="preserve">
<path fill="#000000" opacity="1.000000" stroke="none" 
	d="
M811.000000,1088.000000 
	C540.666687,1088.000000 270.833344,1088.000000 1.000000,1088.000000 
	C1.000000,725.666687 1.000000,363.333344 1.000000,1.000000 
	C438.333344,1.000000 875.666687,1.000000 1313.000000,1.000000 
	C1313.000000,363.333344 1313.000000,725.666687 1313.000000,1088.000000 
	C1145.833374,1088.000000 978.666687,1088.000000 811.000000,1088.000000 
M668.394836,990.030090 
	C611.209534,1007.675476 552.813354,1013.614014 493.219299,1008.344910 
	C442.054443,1003.821045 393.061493,990.983521 346.405151,969.609009 
	C200.233292,902.643799 101.331238,766.365540 83.286041,606.491272 
	C76.057938,542.452698 81.901985,479.370728 102.137321,418.084747 
	C140.687881,301.328125 214.285233,213.367325 322.590210,155.287277 
	C401.815308,112.801727 486.796234,96.818474 576.338745,104.786476 
	C618.032471,108.496620 658.392883,117.860970 697.362000,133.017639 
	C779.166565,164.834763 846.235657,216.128235 898.821289,286.364990 
	C915.913940,309.195099 930.518005,333.554504 943.011963,359.191010 
	C943.737305,360.679474 945.070557,362.823730 946.293884,362.947113 
	C950.779480,363.399384 955.338257,363.126282 960.173157,363.126282 
	C874.337891,172.946091 661.534668,48.427258 430.107025,100.410385 
	C212.078644,149.383774 53.667747,349.986511 67.199333,584.190002 
	C80.528366,814.887878 261.758362,1002.893555 494.101044,1022.645630 
	C713.660950,1041.311035 891.089783,907.925049 959.853149,749.864807 
	C957.418396,749.864807 955.051270,750.200867 952.816223,749.800110 
	C946.760986,748.714417 943.916321,751.418457 941.269531,756.809631 
	C910.762207,818.948547 868.069397,871.272827 813.611450,913.999817 
	C770.112671,948.128296 721.892090,973.271240 668.394836,990.030090 
M716.219055,426.986603 
	C727.572388,427.844604 738.140137,430.948700 747.159058,438.180939 
	C760.782104,449.105377 765.151611,463.920441 765.036011,480.703094 
	C764.922729,497.139709 764.968201,496.798187 748.648499,498.087860 
	C728.743958,499.660797 708.792725,501.255035 689.054565,504.153564 
	C668.498474,507.172150 649.038330,513.902893 632.185852,526.736084 
	C600.219910,551.078247 596.833618,599.342346 625.336487,625.825500 
	C638.551270,638.103821 654.849670,642.739746 672.347839,643.890808 
	C705.605774,646.078491 734.144775,635.298523 758.231140,612.352661 
	C759.775940,610.880981 762.068176,610.194031 764.012573,609.141968 
	C764.671814,611.247742 765.761780,613.324707 765.904602,615.464905 
	C766.248230,620.612122 765.999207,625.796631 766.263062,630.952026 
	C766.620056,637.927368 768.620728,639.734924 775.459656,639.751831 
	C781.625000,639.767090 787.791138,639.814026 793.955505,639.737366 
	C799.517334,639.668152 800.944946,638.399780 800.946594,633.039673 
	C800.963318,579.051392 801.332703,525.058533 800.734680,471.076599 
	C800.387329,439.717957 783.355042,416.161346 754.537537,406.665833 
	C724.003418,396.604736 693.178467,397.368469 663.030029,408.658478 
	C642.922363,416.188416 627.353882,429.692780 616.124939,448.064453 
	C612.350159,454.240356 612.954163,455.859009 619.654297,458.104492 
	C625.008423,459.898773 630.360840,461.698181 635.713074,463.498077 
	C643.623657,466.158295 643.628967,466.163544 648.484558,459.594971 
	C665.089294,437.132446 686.817566,425.160736 716.219055,426.986603 
M361.542145,574.978027 
	C370.459961,596.863586 384.413147,614.617249 404.451111,627.414978 
	C426.094421,641.237976 450.017609,645.160156 475.176208,643.899475 
	C512.933899,642.007568 542.143921,625.211975 563.150696,593.832825 
	C565.674255,590.063171 565.138184,587.928284 561.191833,586.066956 
	C556.083374,583.657593 550.955383,581.252258 546.039673,578.483276 
	C541.858215,576.127869 539.122498,576.946167 536.415771,580.849854 
	C521.865173,601.835022 501.845673,613.042236 476.310028,615.448303 
	C431.060944,619.712097 390.668976,583.218079 391.017548,537.767700 
	C391.066223,531.419739 392.359497,530.083130 398.530640,530.082275 
	C432.693787,530.077637 466.856964,530.080139 501.020111,530.079956 
	C521.851318,530.079834 542.682556,530.103149 563.513672,530.064758 
	C570.159973,530.052490 571.509033,529.298950 571.323486,522.719360 
	C571.009766,511.597870 570.549377,500.383392 568.815735,489.419037 
	C565.007080,465.330292 555.270447,443.880402 537.382446,426.789948 
	C520.039734,410.220551 498.900757,402.179108 475.235413,400.611084 
	C429.979340,397.612549 393.494171,413.681091 370.312744,453.325012 
	C347.895508,491.662048 347.369690,532.691772 361.542145,574.978027 
M1103.989136,505.583344 
	C1119.521362,544.437378 1135.231323,583.222351 1150.387817,622.222412 
	C1152.578979,627.860657 1153.351685,634.682312 1152.620361,640.693481 
	C1151.060181,653.518005 1145.222656,664.747314 1136.166260,674.130859 
	C1129.588379,680.946350 1121.701782,684.423706 1112.057739,684.093018 
	C1103.569092,683.802002 1095.062378,684.007141 1086.563965,684.049805 
	C1084.404419,684.060669 1082.233643,684.181824 1080.089844,684.436646 
	C1076.006958,684.921997 1073.856079,687.054504 1074.061157,691.427795 
	C1074.248413,695.418396 1074.095947,699.424683 1074.101196,703.424072 
	C1074.109985,710.095032 1075.278931,711.797241 1082.147827,711.958252 
	C1094.444824,712.246521 1106.824951,712.750427 1119.043335,711.694153 
	C1135.152100,710.301514 1150.321411,705.046875 1160.851807,692.054810 
	C1167.254639,684.155457 1173.004395,675.207642 1176.827271,665.826111 
	C1193.493652,624.927002 1209.369385,583.705444 1225.488403,542.583679 
	C1242.455566,499.298004 1259.380249,455.995636 1276.302856,412.692535 
	C1278.677734,406.615509 1277.418091,404.692841 1270.981934,404.576721 
	C1265.817871,404.483490 1260.650635,404.547638 1255.484863,404.555634 
	C1247.814087,404.567535 1247.037476,405.089966 1244.233765,412.435089 
	C1223.153564,467.659454 1202.112671,522.898865 1180.922852,578.081116 
	C1179.897705,580.750793 1177.590942,582.928345 1175.881104,585.335083 
	C1174.248169,582.991394 1172.063477,580.860840 1171.063477,578.272583 
	C1149.639648,522.822754 1128.279663,467.347931 1107.140381,411.789185 
	C1105.067871,406.341949 1102.022339,404.261505 1096.403809,404.481598 
	C1088.916504,404.774902 1081.408691,404.519989 1073.910156,404.565491 
	C1066.320312,404.611542 1064.624512,407.087646 1067.468872,414.214111 
	C1079.531860,444.437683 1091.651855,474.638428 1103.989136,505.583344 
M1032.834595,439.815948 
	C1027.628052,434.230469 1023.014099,427.902893 1017.111206,423.189667 
	C993.210449,404.106110 965.273132,398.564575 935.445435,400.478333 
	C915.663330,401.747559 897.118774,407.004700 880.915283,418.907806 
	C856.593079,436.774902 847.825928,468.073212 859.966736,493.347687 
	C867.183960,508.372070 879.596497,517.807739 894.795471,522.957092 
	C915.539795,529.985168 936.709656,535.762390 957.722168,541.991272 
	C969.515686,545.487305 981.440918,548.660645 991.695496,555.854736 
	C1007.287170,566.793152 1009.264709,586.567444 995.610168,599.765503 
	C991.177307,604.050171 985.618774,607.688660 979.923523,610.052368 
	C962.277771,617.375366 943.775330,618.630066 925.008728,615.514648 
	C902.485535,611.775635 884.767578,600.306824 872.054199,581.391724 
	C869.150452,577.071411 866.394714,576.492065 862.181824,579.129395 
	C857.818848,581.860657 853.242981,584.251282 848.765198,586.799622 
	C843.078552,590.036011 842.815247,590.880432 846.018677,596.492676 
	C856.294800,614.496094 872.171997,625.961914 890.728027,633.973633 
	C914.785950,644.360840 940.029541,646.026367 965.684143,642.563843 
	C983.551758,640.152527 1000.339111,634.432007 1014.798584,623.279358 
	C1035.339111,607.436218 1043.644653,586.634155 1037.880981,561.195740 
	C1033.232056,540.676941 1019.209778,527.557861 1000.267151,520.294739 
	C983.710205,513.946289 966.427368,509.513184 949.565491,503.930908 
	C935.246216,499.190399 920.434875,495.317902 906.973938,488.742493 
	C884.669067,477.846924 883.679932,451.784760 904.075134,437.450592 
	C914.931946,429.820190 927.347229,426.917023 940.326721,426.406799 
	C967.268311,425.347717 990.636963,432.861786 1007.399780,455.442108 
	C1009.840759,458.730103 1012.681519,459.007904 1016.108643,457.084778 
	C1021.180664,454.238617 1026.266602,451.408661 1031.441895,448.757843 
	C1035.593628,446.631287 1036.176270,443.983521 1032.834595,439.815948 
z"/>
<path fill="#FBFBFB" opacity="1.000000" stroke="none" 
	d="
M668.786987,989.944397 
	C721.892090,973.271240 770.112671,948.128296 813.611450,913.999817 
	C868.069397,871.272827 910.762207,818.948547 941.269531,756.809631 
	C943.916321,751.418457 946.760986,748.714417 952.816223,749.800110 
	C955.051270,750.200867 957.418396,749.864807 959.853149,749.864807 
	C891.089783,907.925049 713.660950,1041.311035 494.101044,1022.645630 
	C261.758362,1002.893555 80.528366,814.887878 67.199333,584.190002 
	C53.667747,349.986511 212.078644,149.383774 430.107025,100.410385 
	C661.534668,48.427258 874.337891,172.946091 960.173157,363.126282 
	C955.338257,363.126282 950.779480,363.399384 946.293884,362.947113 
	C945.070557,362.823730 943.737305,360.679474 943.011963,359.191010 
	C930.518005,333.554504 915.913940,309.195099 898.821289,286.364990 
	C846.235657,216.128235 779.166565,164.834763 697.362000,133.017639 
	C658.392883,117.860970 618.032471,108.496620 576.338745,104.786476 
	C486.796234,96.818474 401.815308,112.801727 322.590210,155.287277 
	C214.285233,213.367325 140.687881,301.328125 102.137321,418.084747 
	C81.901985,479.370728 76.057938,542.452698 83.286041,606.491272 
	C101.331238,766.365540 200.233292,902.643799 346.405151,969.609009 
	C393.061493,990.983521 442.054443,1003.821045 493.219299,1008.344910 
	C552.813354,1013.614014 611.209534,1007.675476 668.786987,989.944397 
z"/>
<path fill="#FDFDFD" opacity="1.000000" stroke="none" 
	d="
M715.747314,426.972809 
	C686.817566,425.160736 665.089294,437.132446 648.484558,459.594971 
	C643.628967,466.163544 643.623657,466.158295 635.713074,463.498077 
	C630.360840,461.698181 625.008423,459.898773 619.654297,458.104492 
	C612.954163,455.859009 612.350159,454.240356 616.124939,448.064453 
	C627.353882,429.692780 642.922363,416.188416 663.030029,408.658478 
	C693.178467,397.368469 724.003418,396.604736 754.537537,406.665833 
	C783.355042,416.161346 800.387329,439.717957 800.734680,471.076599 
	C801.332703,525.058533 800.963318,579.051392 800.946594,633.039673 
	C800.944946,638.399780 799.517334,639.668152 793.955505,639.737366 
	C787.791138,639.814026 781.625000,639.767090 775.459656,639.751831 
	C768.620728,639.734924 766.620056,637.927368 766.263062,630.952026 
	C765.999207,625.796631 766.248230,620.612122 765.904602,615.464905 
	C765.761780,613.324707 764.671814,611.247742 764.012573,609.141968 
	C762.068176,610.194031 759.775940,610.880981 758.231140,612.352661 
	C734.144775,635.298523 705.605774,646.078491 672.347839,643.890808 
	C654.849670,642.739746 638.551270,638.103821 625.336487,625.825500 
	C596.833618,599.342346 600.219910,551.078247 632.185852,526.736084 
	C649.038330,513.902893 668.498474,507.172150 689.054565,504.153564 
	C708.792725,501.255035 728.743958,499.660797 748.648499,498.087860 
	C764.968201,496.798187 764.922729,497.139709 765.036011,480.703094 
	C765.151611,463.920441 760.782104,449.105377 747.159058,438.180939 
	C738.140137,430.948700 727.572388,427.844604 715.747314,426.972809 
M645.115906,588.052551 
	C649.200623,601.022156 658.333801,608.837708 670.848938,613.131592 
	C702.052246,623.837341 743.103394,608.702942 759.881897,580.352173 
	C763.343689,574.502808 765.198303,568.301636 765.062012,561.397400 
	C764.848206,550.572937 765.019592,539.741089 764.999756,528.912415 
	C764.985046,520.844238 763.548584,519.452393 755.630676,520.134094 
	C741.035889,521.390564 726.405273,522.377136 711.869629,524.137146 
	C694.062134,526.293396 676.907410,530.921814 661.910950,541.307556 
	C646.100159,552.257202 640.210205,568.646667 645.115906,588.052551 
z"/>
<path fill="#FDFDFD" opacity="1.000000" stroke="none" 
	d="
M361.361298,574.635742 
	C347.369690,532.691772 347.895508,491.662048 370.312744,453.325012 
	C393.494171,413.681091 429.979340,397.612549 475.235413,400.611084 
	C498.900757,402.179108 520.039734,410.220551 537.382446,426.789948 
	C555.270447,443.880402 565.007080,465.330292 568.815735,489.419037 
	C570.549377,500.383392 571.009766,511.597870 571.323486,522.719360 
	C571.509033,529.298950 570.159973,530.052490 563.513672,530.064758 
	C542.682556,530.103149 521.851318,530.079834 501.020111,530.079956 
	C466.856964,530.080139 432.693787,530.077637 398.530640,530.082275 
	C392.359497,530.083130 391.066223,531.419739 391.017548,537.767700 
	C390.668976,583.218079 431.060944,619.712097 476.310028,615.448303 
	C501.845673,613.042236 521.865173,601.835022 536.415771,580.849854 
	C539.122498,576.946167 541.858215,576.127869 546.039673,578.483276 
	C550.955383,581.252258 556.083374,583.657593 561.191833,586.066956 
	C565.138184,587.928284 565.674255,590.063171 563.150696,593.832825 
	C542.143921,625.211975 512.933899,642.007568 475.176208,643.899475 
	C450.017609,645.160156 426.094421,641.237976 404.451111,627.414978 
	C384.413147,614.617249 370.459961,596.863586 361.361298,574.635742 
M528.838196,469.795563 
	C513.956360,433.746521 481.658600,420.225342 444.269073,429.430939 
	C413.177399,437.086029 388.601013,473.744446 392.414429,505.577271 
	C393.481750,505.633057 394.612000,505.743591 395.742249,505.743805 
	C439.199677,505.752411 482.657135,505.751038 526.114563,505.749756 
	C526.780457,505.749756 527.446289,505.735687 528.112183,505.725983 
	C532.314026,505.664612 534.930542,503.902771 534.169250,499.339294 
	C532.565308,489.725098 530.766174,480.143433 528.838196,469.795563 
z"/>
<path fill="#FDFDFD" opacity="1.000000" stroke="none" 
	d="
M1103.870117,505.215454 
	C1091.651855,474.638428 1079.531860,444.437683 1067.468872,414.214111 
	C1064.624512,407.087646 1066.320312,404.611542 1073.910156,404.565491 
	C1081.408691,404.519989 1088.916504,404.774902 1096.403809,404.481598 
	C1102.022339,404.261505 1105.067871,406.341949 1107.140381,411.789185 
	C1128.279663,467.347931 1149.639648,522.822754 1171.063477,578.272583 
	C1172.063477,580.860840 1174.248169,582.991394 1175.881104,585.335083 
	C1177.590942,582.928345 1179.897705,580.750793 1180.922852,578.081116 
	C1202.112671,522.898865 1223.153564,467.659454 1244.233765,412.435089 
	C1247.037476,405.089966 1247.814087,404.567535 1255.484863,404.555634 
	C1260.650635,404.547638 1265.817871,404.483490 1270.981934,404.576721 
	C1277.418091,404.692841 1278.677734,406.615509 1276.302856,412.692535 
	C1259.380249,455.995636 1242.455566,499.298004 1225.488403,542.583679 
	C1209.369385,583.705444 1193.493652,624.927002 1176.827271,665.826111 
	C1173.004395,675.207642 1167.254639,684.155457 1160.851807,692.054810 
	C1150.321411,705.046875 1135.152100,710.301514 1119.043335,711.694153 
	C1106.824951,712.750427 1094.444824,712.246521 1082.147827,711.958252 
	C1075.278931,711.797241 1074.109985,710.095032 1074.101196,703.424072 
	C1074.095947,699.424683 1074.248413,695.418396 1074.061157,691.427795 
	C1073.856079,687.054504 1076.006958,684.921997 1080.089844,684.436646 
	C1082.233643,684.181824 1084.404419,684.060669 1086.563965,684.049805 
	C1095.062378,684.007141 1103.569092,683.802002 1112.057739,684.093018 
	C1121.701782,684.423706 1129.588379,680.946350 1136.166260,674.130859 
	C1145.222656,664.747314 1151.060181,653.518005 1152.620361,640.693481 
	C1153.351685,634.682312 1152.578979,627.860657 1150.387817,622.222412 
	C1135.231323,583.222351 1119.521362,544.437378 1103.870117,505.215454 
z"/>
<path fill="#FDFDFD" opacity="1.000000" stroke="none" 
	d="
M1033.018555,440.139069 
	C1036.176270,443.983521 1035.593628,446.631287 1031.441895,448.757843 
	C1026.266602,451.408661 1021.180664,454.238617 1016.108643,457.084778 
	C1012.681519,459.007904 1009.840759,458.730103 1007.399780,455.442108 
	C990.636963,432.861786 967.268311,425.347717 940.326721,426.406799 
	C927.347229,426.917023 914.931946,429.820190 904.075134,437.450592 
	C883.679932,451.784760 884.669067,477.846924 906.973938,488.742493 
	C920.434875,495.317902 935.246216,499.190399 949.565491,503.930908 
	C966.427368,509.513184 983.710205,513.946289 1000.267151,520.294739 
	C1019.209778,527.557861 1033.232056,540.676941 1037.880981,561.195740 
	C1043.644653,586.634155 1035.339111,607.436218 1014.798584,623.279358 
	C1000.339111,634.432007 983.551758,640.152527 965.684143,642.563843 
	C940.029541,646.026367 914.785950,644.360840 890.728027,633.973633 
	C872.171997,625.961914 856.294800,614.496094 846.018677,596.492676 
	C842.815247,590.880432 843.078552,590.036011 848.765198,586.799622 
	C853.242981,584.251282 857.818848,581.860657 862.181824,579.129395 
	C866.394714,576.492065 869.150452,577.071411 872.054199,581.391724 
	C884.767578,600.306824 902.485535,611.775635 925.008728,615.514648 
	C943.775330,618.630066 962.277771,617.375366 979.923523,610.052368 
	C985.618774,607.688660 991.177307,604.050171 995.610168,599.765503 
	C1009.264709,586.567444 1007.287170,566.793152 991.695496,555.854736 
	C981.440918,548.660645 969.515686,545.487305 957.722168,541.991272 
	C936.709656,535.762390 915.539795,529.985168 894.795471,522.957092 
	C879.596497,517.807739 867.183960,508.372070 859.966736,493.347687 
	C847.825928,468.073212 856.593079,436.774902 880.915283,418.907806 
	C897.118774,407.004700 915.663330,401.747559 935.445435,400.478333 
	C965.273132,398.564575 993.210449,404.106110 1017.111206,423.189667 
	C1023.014099,427.902893 1027.628052,434.230469 1033.018555,440.139069 
z"/>
<path fill="#010101" opacity="1.000000" stroke="none" 
	d="
M645.048950,587.641479 
	C640.210205,568.646667 646.100159,552.257202 661.910950,541.307556 
	C676.907410,530.921814 694.062134,526.293396 711.869629,524.137146 
	C726.405273,522.377136 741.035889,521.390564 755.630676,520.134094 
	C763.548584,519.452393 764.985046,520.844238 764.999756,528.912415 
	C765.019592,539.741089 764.848206,550.572937 765.062012,561.397400 
	C765.198303,568.301636 763.343689,574.502808 759.881897,580.352173 
	C743.103394,608.702942 702.052246,623.837341 670.848938,613.131592 
	C658.333801,608.837708 649.200623,601.022156 645.048950,587.641479 
z"/>
<path fill="#020202" opacity="1.000000" stroke="none" 
	d="
M528.942688,470.171997 
	C530.766174,480.143433 532.565308,489.725098 534.169250,499.339294 
	C534.930542,503.902771 532.314026,505.664612 528.112183,505.725983 
	C527.446289,505.735687 526.780457,505.749756 526.114563,505.749756 
	C482.657135,505.751038 439.199677,505.752411 395.742249,505.743805 
	C394.612000,505.743591 393.481750,505.633057 392.414429,505.577271 
	C388.601013,473.744446 413.177399,437.086029 444.269073,429.430939 
	C481.658600,420.225342 513.956360,433.746521 528.942688,470.171997 
z"/>
</svg>