<?xml version="1.0" standalone="no"?>
<!DOCTYPE svg PUBLIC "-//W3C//DTD SVG 20010904//EN"
 "http://www.w3.org/TR/2001/REC-SVG-20010904/DTD/svg10.dtd">
<svg version="1.0" xmlns="http://www.w3.org/2000/svg"
 width="300.000000pt" height="295.000000pt" viewBox="0 0 300.000000 295.000000"
 preserveAspectRatio="xMidYMid meet">
<metadata>
Created by potrace 1.10, written by Peter Selinger 2001-2011
</metadata>
<g transform="translate(0.000000,295.000000) scale(0.100000,-0.100000)"
fill="#000000" stroke="none">
<path d="M2744 2942 c4 -7 16 -12 27 -12 10 0 19 -5 19 -11 0 -5 4 -8 9 -5 13
9 74 -14 94 -35 10 -11 22 -19 27 -19 16 0 12 20 -5 26 -8 4 -12 11 -8 17 3 6
1 7 -5 3 -7 -4 -20 -2 -29 3 -16 9 -16 10 5 11 12 0 22 4 22 10 0 6 -29 9 -69
9 -38 -1 -75 2 -82 6 -8 5 -10 4 -5 -3z"/>
<path d="M12 2200 c2 -407 4 -740 6 -740 3 0 25 52 27 65 1 6 7 21 12 35 6 14
9 28 6 32 -2 4 4 19 13 33 9 14 14 28 12 31 -9 9 -38 -26 -38 -46 0 -29 -22
-77 -27 -62 -3 8 -1 24 5 35 5 12 19 59 30 105 18 75 19 82 4 80 -16 -3 -17
26 -20 322 -2 179 -5 436 -7 572 -3 225 -2 247 13 251 9 3 57 3 107 2 50 -2
350 -4 668 -5 494 -2 579 -4 584 -16 3 -8 -2 -23 -11 -33 -9 -10 -19 -36 -22
-57 -3 -22 -9 -48 -14 -59 -4 -11 -14 -40 -21 -64 -7 -24 -20 -46 -28 -49 -9
-3 -23 -11 -31 -18 -14 -11 -87 -41 -117 -48 -31 -6 -162 -90 -195 -123 -52
-54 -76 -123 -71 -206 3 -60 2 -66 -14 -60 -11 4 -5 -7 15 -28 29 -30 32 -39
27 -74 -4 -22 -9 -48 -12 -59 -4 -13 -1 -16 7 -11 8 5 11 3 8 -5 -2 -8 -14
-14 -27 -15 -31 -2 -49 -35 -42 -77 2 -15 -105 -14 -123 1 -21 17 -13 79 12
97 12 8 20 23 19 34 -1 21 -17 29 -17 9 0 -8 -4 -8 -15 1 -8 6 -19 9 -25 5 -5
-3 -13 1 -16 10 -4 9 -13 14 -20 11 -9 -3 -14 1 -14 12 0 9 -5 24 -10 32 -8
11 -9 8 -6 -12 3 -15 2 -27 -2 -27 -27 4 -52 -3 -52 -15 0 -19 7 -23 55 -30
l40 -7 -30 14 c-22 10 -25 15 -14 19 19 7 79 -37 79 -58 0 -8 -4 -14 -10 -14
-5 0 -10 -9 -10 -20 0 -21 -15 -27 -25 -10 -3 5 -12 7 -19 4 -8 -3 -63 7 -123
22 -73 19 -134 28 -188 29 -44 0 -81 4 -82 8 -1 5 -10 15 -20 22 -17 13 -17
15 6 46 21 28 22 31 5 25 -15 -6 -16 -5 -7 5 10 10 16 9 32 -5 23 -21 64 -33
179 -51 l87 -14 22 26 c12 14 25 33 28 43 3 10 15 20 27 24 12 3 19 8 16 12
-9 9 -68 -28 -68 -42 0 -30 -143 -23 -239 11 -24 8 -52 15 -61 15 -24 0 -70
-56 -70 -85 0 -13 -6 -30 -12 -37 -7 -7 -20 -22 -28 -32 -14 -18 -14 -19 7 -5
13 8 23 17 23 21 0 4 9 12 20 18 15 8 20 8 18 -2 -2 -6 2 -12 7 -13 6 0 24 -9
42 -18 40 -21 41 -21 39 1 0 9 6 17 14 17 10 0 14 -8 12 -22 -2 -13 2 -23 8
-23 6 0 9 4 6 9 -8 13 19 21 72 21 42 0 44 -1 27 -14 -17 -12 -17 -16 -6 -30
8 -9 16 -14 19 -11 3 2 -1 12 -9 21 -12 14 -10 16 16 12 44 -5 53 -31 36 -101
-16 -67 -7 -110 24 -115 18 -2 19 -2 3 8 -10 6 -18 21 -18 33 0 16 3 18 9 9 5
-9 9 18 9 68 1 44 4 85 7 90 3 5 17 4 31 -2 23 -11 24 -13 7 -19 -10 -3 -20
-3 -23 1 -3 5 -5 -21 -5 -56 0 -56 1 -62 13 -47 7 10 10 28 7 41 -3 13 -1 22
6 22 7 0 9 3 6 7 -14 13 27 31 50 22 14 -5 23 -5 23 1 0 22 38 8 69 -24 21
-21 40 -32 50 -29 10 3 7 -3 -8 -16 -28 -25 -24 -26 18 -5 18 9 42 16 54 16
29 0 97 -20 75 -21 -11 -1 -18 -9 -18 -22 0 -11 5 -17 10 -14 5 3 10 1 10 -5
0 -7 7 -5 16 4 8 9 20 16 25 16 5 0 23 14 41 30 17 17 34 30 37 30 3 0 23 -16
43 -35 20 -19 39 -35 42 -35 3 0 22 -11 43 -26 20 -14 67 -38 103 -55 106 -49
130 -62 130 -71 0 -5 15 -18 34 -29 19 -11 42 -36 51 -55 23 -50 29 -36 11 27
-8 30 -17 74 -21 99 -3 25 -10 65 -16 90 -44 210 -48 244 -35 317 14 83 30
105 89 123 23 7 45 17 48 22 3 5 25 12 48 15 42 6 58 23 20 23 -21 0 -44 -9
-147 -57 -80 -37 -84 -49 -79 -200 3 -106 32 -316 53 -385 11 -35 -14 -17 -30
21 -12 32 -19 38 -36 34 -16 -4 -23 0 -27 15 -4 18 -8 19 -24 9 -17 -10 -23
-9 -37 9 -9 12 -33 27 -52 33 -42 13 -117 65 -183 127 -45 42 -50 44 -66 30
-10 -9 -18 -22 -19 -29 -3 -33 -10 -50 -25 -59 -13 -7 -17 -5 -17 7 0 8 -9 15
-19 15 -49 0 -73 42 -32 55 11 3 18 12 15 20 -9 22 13 27 52 10 20 -8 38 -15
40 -15 12 0 0 27 -26 57 -30 34 -38 61 -21 79 6 5 2 31 -10 68 -16 45 -18 65
-10 87 8 23 7 29 -5 29 -15 0 -20 35 -5 45 5 3 17 27 26 53 17 50 72 101 148
137 22 10 41 24 44 32 3 8 13 11 25 7 10 -3 24 -1 31 4 7 5 29 15 49 21 20 7
42 19 48 27 7 7 29 14 49 14 34 1 35 2 17 15 -11 8 -15 15 -9 15 15 0 63 152
52 166 -5 6 1 24 16 47 14 20 25 41 25 46 0 6 4 11 9 11 5 0 7 8 5 18 -5 16
-49 17 -725 20 l-719 2 2 -740z"/>
<path d="M2950 2925 l-25 -14 26 -1 c15 0 32 7 39 15 17 20 -5 20 -40 0z"/>
<path d="M1755 2908 c-23 -22 -8 -24 23 -2 20 14 24 14 51 -5 35 -25 50 -16
17 10 -29 23 -65 21 -91 -3z"/>
<path d="M2940 2856 c0 -4 9 -19 20 -33 11 -14 20 -32 20 -39 0 -7 5 -16 10
-19 7 -4 10 8 9 34 -2 22 -7 37 -12 34 -4 -3 -17 3 -28 13 -10 9 -19 14 -19
10z"/>
<path d="M1548 2813 c-17 -4 -33 -32 -23 -41 3 -3 15 4 27 16 24 23 23 30 -4
25z"/>
<path d="M2120 2803 c0 -11 -5 -24 -11 -30 -9 -9 -7 -10 10 -6 22 5 29 37 11
48 -5 3 -10 -2 -10 -12z"/>
<path d="M1733 2776 c0 -8 12 -13 29 -14 24 -1 27 2 17 14 -15 18 -46 18 -46
0z"/>
<path d="M1483 2759 c20 -12 23 -29 4 -29 -17 0 -82 -58 -75 -66 11 -10 48 16
48 33 0 9 3 14 6 10 3 -3 15 2 25 12 22 20 16 51 -10 51 -14 -1 -14 -2 2 -11z"/>
<path d="M2060 2745 c-14 -17 -35 -21 -25 -5 6 10 -8 14 -17 4 -3 -3 5 -28 19
-56 19 -41 22 -53 11 -59 -24 -15 15 -10 42 6 23 13 23 14 5 15 -47 0 -63 65
-22 93 12 9 17 16 11 16 -6 1 -17 -6 -24 -14z"/>
<path d="M1704 2706 c-16 -17 -27 -56 -17 -56 8 0 36 61 30 66 -1 1 -7 -4 -13
-10z"/>
<path d="M1854 2668 c-4 -6 -3 -8 3 -5 6 4 16 0 23 -8 10 -12 10 -15 0 -15 -8
0 -11 -3 -7 -6 3 -3 13 -2 22 3 16 9 16 11 0 26 -19 20 -31 21 -41 5z"/>
<path d="M1323 2556 c-55 -29 -59 -33 -23 -28 17 2 30 8 30 13 0 5 5 9 11 9 6
0 17 7 25 15 21 20 7 18 -43 -9z"/>
<path d="M2990 2461 c0 -21 -7 -55 -15 -75 -16 -39 -22 -116 -11 -135 13 -21
36 -12 36 14 0 14 -6 25 -12 25 -8 0 -9 3 -3 8 11 7 21 202 11 202 -3 0 -6
-17 -6 -39z"/>
<path d="M1681 2369 c-30 -5 -57 -12 -60 -16 -8 -8 94 6 122 17 27 11 9 10
-62 -1z"/>
<path d="M1036 2332 c2 -2 -8 -24 -21 -47 l-23 -43 24 -5 c21 -4 24 -1 18 16
-3 10 0 30 7 43 8 17 9 27 2 33 -5 5 -9 6 -7 3z"/>
<path d="M1105 2311 c3 -11 1 -22 -5 -26 -5 -3 -10 -11 -10 -17 0 -7 6 -6 15
2 17 14 20 60 4 60 -6 0 -8 -8 -4 -19z"/>
<path d="M1690 2299 c-22 -4 -4 -6 47 -6 45 1 80 3 78 6 -7 7 -87 7 -125 0z"/>
<path d="M2395 2296 c25 -10 43 -12 49 -6 7 7 4 10 -6 10 -8 0 -31 2 -49 5
-33 6 -33 6 6 -9z"/>
<path d="M2426 2222 c-3 -6 4 -12 17 -16 33 -9 53 -7 42 3 -16 15 -53 22 -59
13z"/>
<path d="M1125 2154 c-26 -31 -39 -54 -37 -69 2 -14 -4 -27 -14 -33 -12 -7
-14 -14 -7 -27 9 -15 11 -13 22 13 7 17 19 33 27 36 8 3 14 13 14 23 0 9 12
27 28 40 23 19 24 22 8 23 -18 0 -18 1 -1 20 10 11 14 20 9 20 -6 0 -28 -21
-49 -46z"/>
<path d="M2500 2190 c0 -5 3 -10 8 -10 4 0 20 -11 36 -25 29 -25 46 -32 46
-17 0 7 -74 62 -84 62 -3 0 -6 -4 -6 -10z"/>
<path d="M1056 2164 c-28 -19 -40 -23 -46 -14 -9 14 -15 6 -24 -32 -4 -16 -1
-30 6 -34 6 -4 8 -3 4 4 -3 6 -2 13 4 17 5 3 10 -2 11 -12 2 -57 10 -98 20
-107 8 -8 9 10 5 66 l-6 77 35 21 c19 12 35 26 35 31 0 12 -1 12 -44 -17z"/>
<path d="M2186 2163 c-1 -1 -14 -4 -29 -7 -14 -2 -32 -8 -39 -12 -7 -5 -20 -9
-28 -9 -8 -1 -25 -2 -38 -3 -13 -1 -21 -6 -18 -10 3 -5 -13 -26 -34 -47 -24
-24 -40 -48 -40 -63 0 -22 1 -22 35 11 19 19 35 39 35 44 0 10 28 26 100 54
39 15 151 18 190 4 23 -8 24 -7 11 9 -8 9 -20 15 -28 12 -7 -3 -13 -1 -13 3 0
7 -97 20 -104 14z"/>
<path d="M2626 2108 c15 -24 48 -58 56 -58 16 0 8 20 -19 45 -29 26 -50 34
-37 13z"/>
<path d="M1500 2101 c-47 -12 -63 -26 -52 -47 16 -31 47 -254 44 -318 -1 -16
3 -36 7 -45 5 -9 12 -32 15 -52 6 -39 44 -134 51 -128 3 3 -18 120 -25 139 -2
3 -7 16 -12 30 -17 42 -17 70 0 70 13 0 13 3 -1 18 -32 35 -11 56 31 33 28
-15 169 37 158 58 -1 3 5 13 15 23 15 14 20 15 38 2 13 -10 21 -25 20 -42 0
-15 -3 -21 -6 -14 -2 6 -10 12 -16 12 -5 0 -7 -3 -4 -7 4 -3 -1 -12 -11 -20
-12 -10 -14 -16 -4 -19 21 -9 13 -45 -18 -81 -30 -34 -37 -57 -21 -67 5 -3 11
3 14 14 3 11 10 20 16 20 15 0 14 -30 -3 -49 -7 -9 -17 -26 -21 -39 -5 -19 -3
-22 17 -18 13 3 28 5 33 5 6 1 3 5 -4 10 -12 8 -9 11 12 16 18 5 31 2 43 -9 9
-10 19 -14 22 -11 4 3 0 10 -7 14 -8 5 -11 17 -6 30 5 18 2 21 -25 21 -37 0
-46 18 -27 57 14 28 33 126 41 213 4 43 2 47 -30 70 -20 13 -42 36 -50 52 -8
15 -22 28 -32 28 -9 0 -30 9 -47 20 -34 22 -50 26 -39 8 5 -8 2 -9 -12 -4 -40
17 -55 18 -71 5 -12 -10 -14 -10 -9 -1 4 6 6 11 4 11 -2 -1 -14 -4 -28 -8z
m142 -33 c22 -6 42 -17 45 -24 3 -7 10 -11 18 -8 9 4 11 -2 8 -20 -4 -18 -1
-26 9 -26 27 0 67 -46 61 -70 -4 -17 -11 -20 -27 -15 -11 4 -29 7 -38 8 -9 1
-15 4 -12 8 7 11 -36 22 -79 21 -20 -1 -54 -9 -73 -17 -42 -17 -54 -19 -54 -6
0 16 99 51 147 52 40 0 44 2 25 10 -14 5 -39 5 -65 -1 -54 -12 -67 -12 -67 0
0 5 12 13 28 17 l27 7 -25 6 c-18 4 -29 1 -38 -12 -19 -26 -59 -5 -58 30 2 48
81 66 168 40z m68 -188 c0 -6 -9 -10 -20 -10 -13 0 -20 7 -20 20 0 18 3 19 20
10 11 -6 20 -15 20 -20z m-136 4 c9 -23 8 -24 -14 -24 -19 0 -27 20 -13 33 11
11 20 8 27 -9z m-37 -30 c12 -12 26 -14 52 -9 67 12 126 18 120 11 -3 -4 -31
-15 -61 -26 -41 -14 -63 -17 -92 -10 -38 8 -59 26 -50 42 7 12 13 10 31 -8z"/>
<path d="M2152 2091 c-58 -10 -73 -27 -23 -26 21 0 37 4 34 9 -6 9 54 4 107
-9 l25 -6 -25 12 c-14 6 -33 15 -42 20 -10 5 -21 8 -25 8 -5 -1 -27 -5 -51 -8z"/>
<path d="M828 2030 c2 -16 10 -30 18 -30 7 0 11 8 9 20 -9 47 -34 56 -27 10z"/>
<path d="M2700 2046 c0 -24 23 -56 40 -56 26 0 25 11 -3 38 -22 21 -37 28 -37
18z"/>
<path d="M2086 2018 c-12 -10 -17 -17 -12 -18 5 0 2 -8 -5 -17 -9 -11 -2 -9
19 6 39 27 120 40 176 28 49 -10 83 0 46 14 -41 16 -201 7 -224 -13z"/>
<path d="M757 2003 c-12 -11 -8 -21 18 -49 22 -24 28 -26 51 -16 26 12 24 38
-3 28 -8 -3 -24 5 -37 19 -13 14 -26 22 -29 18z"/>
<path d="M2150 1991 c-14 -5 -46 -21 -70 -37 l-45 -28 35 -9 c81 -21 209 -20
196 2 -3 5 -17 6 -31 3 -20 -3 -24 -1 -19 11 4 11 -2 17 -18 20 -17 3 -15 5
10 6 19 0 31 5 27 11 -3 6 -1 10 4 10 6 0 11 -5 11 -10 0 -6 8 -5 20 2 20 13
20 13 -7 19 -39 9 -83 9 -113 0z m22 -56 c4 -20 1 -25 -16 -25 -22 0 -54 16
-46 23 9 8 45 26 51 27 4 0 9 -11 11 -25z"/>
<path d="M2294 1969 c-3 -5 -11 -6 -17 -3 -9 5 -9 4 0 -6 6 -7 9 -20 6 -29 -4
-11 -1 -10 10 4 12 15 18 17 27 8 9 -8 5 -15 -16 -27 -20 -10 -24 -15 -11 -16
9 0 25 8 35 18 10 10 23 17 29 15 6 -2 13 0 16 4 3 4 -12 16 -34 25 -23 9 -41
13 -45 7z"/>
<path d="M2690 1973 c0 -7 8 -20 19 -30 26 -25 41 -57 42 -90 0 -15 3 -22 6
-15 10 25 -8 103 -25 109 -9 4 -22 14 -29 22 -8 10 -12 12 -13 4z"/>
<path d="M2785 1949 c-4 -6 -4 -14 1 -18 5 -3 15 -16 22 -29 9 -17 9 -21 0
-20 -6 2 -18 -15 -25 -36 -7 -21 -20 -53 -27 -70 -8 -17 -17 -43 -20 -58 -7
-29 -54 -61 -126 -85 -20 -6 -27 -12 -16 -12 17 -1 18 -3 4 -18 -8 -10 -18
-28 -21 -41 -4 -19 -3 -21 9 -11 8 7 14 7 14 1 0 -5 8 -13 17 -16 16 -6 16 -6
0 12 -9 10 -17 23 -17 28 0 12 65 34 107 37 18 2 36 6 40 11 4 5 -1 6 -12 3
-11 -4 -31 0 -45 8 l-25 14 32 11 c38 14 59 43 69 96 4 21 15 50 25 63 11 13
19 28 19 34 0 6 8 19 17 30 17 18 17 19 0 32 -10 7 -16 18 -15 25 4 17 -18 24
-27 9z"/>
<path d="M387 1929 c-24 -14 -11 -32 14 -19 10 6 19 15 19 20 0 13 -10 12 -33
-1z"/>
<path d="M2670 1918 c0 -10 -6 -15 -13 -13 -6 3 -18 -4 -25 -16 -8 -12 -9 -18
-4 -15 6 3 15 -15 21 -41 9 -43 7 -50 -11 -70 -25 -27 -14 -29 29 -8 51 25 66
50 60 92 -7 40 -57 102 -57 71z m22 -45 c22 -20 23 -56 3 -73 -9 -7 -17 -11
-18 -9 -4 5 -27 84 -27 93 0 12 23 6 42 -11z"/>
<path d="M137 1888 c-4 -13 -7 -25 -8 -28 0 -3 -4 -9 -9 -15 -14 -18 -23 -78
-11 -71 7 4 11 -1 11 -13 0 -12 5 -21 10 -21 14 0 12 -27 -2 -33 -8 -3 -6 -6
5 -6 11 -1 17 -9 17 -26 0 -20 -5 -25 -25 -25 -14 0 -25 -4 -25 -9 0 -4 11 -6
25 -4 20 4 26 -1 38 -28 10 -23 11 -38 4 -46 -6 -9 -6 -13 2 -13 7 0 11 -8 10
-17 -2 -10 3 -35 10 -55 11 -32 15 -36 31 -28 23 12 50 3 50 -17 0 -8 -4 -12
-9 -9 -5 3 -12 -5 -15 -19 -3 -13 -16 -33 -27 -44 -12 -11 -18 -25 -14 -31 4
-7 2 -16 -5 -20 -8 -5 -9 -10 -2 -14 6 -3 14 4 17 16 4 13 14 31 22 40 20 23
65 121 52 113 -12 -8 -41 14 -34 25 3 4 -3 14 -13 21 -16 13 -16 13 -2 -5 14
-18 13 -19 -2 -13 -10 3 -18 2 -18 -4 0 -6 -5 -7 -10 -4 -6 4 -9 24 -7 46 2
22 1 42 -3 44 -4 2 -12 30 -19 62 -7 32 -20 83 -31 114 -14 44 -16 66 -9 104
9 50 6 73 -4 33z"/>
<path d="M326 1888 c-11 -34 -13 -98 -4 -98 6 0 8 -11 6 -25 -3 -14 -1 -28 3
-31 5 -3 9 -10 9 -15 0 -6 -5 -7 -12 -3 -6 4 -4 -3 5 -17 9 -13 17 -35 18 -49
0 -22 1 -23 8 -5 4 10 6 31 4 45 -1 14 -6 67 -9 118 -6 82 -18 115 -28 80z"/>
<path d="M424 1868 c-10 -16 -14 -187 -5 -192 4 -3 7 21 7 52 -1 31 1 78 5
105 6 49 5 54 -7 35z"/>
<path d="M1391 1843 c-1 -22 -6 -33 -16 -33 -24 0 -17 -34 10 -47 23 -10 25
-9 24 10 0 12 -4 40 -8 62 -8 39 -9 39 -10 8z"/>
<path d="M2115 1852 c-3 -10 1 -11 16 -7 11 4 26 2 33 -4 8 -7 23 -7 47 -1 18
6 47 10 63 10 16 0 27 2 24 5 -3 3 -44 7 -91 8 -65 2 -88 -1 -92 -11z"/>
<path d="M163 1844 c-7 -18 12 -111 27 -134 12 -18 3 41 -12 82 -5 14 -7 36
-3 47 7 24 -3 29 -12 5z"/>
<path d="M844 1836 c-27 -12 -54 -36 -41 -36 16 0 67 24 67 32 0 5 5 6 10 3 6
-3 10 -1 10 4 0 14 -8 13 -46 -3z"/>
<path d="M857 1776 c-27 -17 -34 -25 -23 -29 8 -3 21 3 30 16 11 15 14 16 10
5 -9 -26 1 -22 20 7 20 31 12 31 -37 1z"/>
<path d="M2597 1757 c-3 -9 -9 -40 -13 -68 l-7 -52 22 22 c11 11 29 21 40 21
10 0 32 5 49 11 25 9 30 16 30 40 l-1 30 -33 -32 c-38 -37 -54 -35 -69 11 -9
26 -13 30 -18 17z"/>
<path d="M1978 1701 c30 -25 41 -63 20 -62 -5 1 -17 1 -28 1 -11 0 -19 6 -17
13 2 13 -46 16 -74 3 -12 -5 -18 -1 -23 16 -5 18 -8 20 -15 9 -5 -7 -6 -22 -4
-32 4 -14 11 -17 28 -13 20 5 23 3 18 -16 -5 -20 -3 -21 18 -15 13 5 41 9 62
11 40 3 77 27 77 50 0 16 -62 64 -81 64 -8 -1 1 -13 19 -29z"/>
<path d="M274 1616 l-22 -21 24 -1 c19 -2 24 3 24 22 0 28 1 28 -26 0z"/>
<path d="M347 1603 c-4 -3 -7 -15 -7 -25 0 -10 -4 -18 -8 -18 -4 0 -8 -8 -9
-19 -1 -14 3 -17 18 -14 13 4 19 0 19 -10 0 -25 17 -29 49 -12 22 11 32 25 37
50 3 20 4 39 0 42 -3 4 -6 -6 -6 -21 0 -19 -4 -25 -12 -20 -7 4 -10 4 -6 0 8
-10 -22 -46 -39 -46 -13 0 -18 24 -14 73 2 26 -8 35 -22 20z"/>
<path d="M2910 1600 c-25 -4 -69 -14 -97 -22 -50 -14 -53 -14 -53 3 0 12 -7
19 -20 19 -11 0 -20 -5 -20 -11 0 -5 5 -7 10 -4 6 3 13 -1 16 -10 8 -20 -29
-61 -62 -69 -13 -4 -24 -11 -24 -17 0 -6 5 -7 12 -3 7 5 9 2 5 -9 -3 -8 0 -20
7 -26 10 -8 11 -4 8 19 -2 17 0 30 4 30 5 0 24 13 42 28 26 22 45 29 84 31 28
1 59 6 69 12 10 5 38 9 63 9 34 0 46 4 46 15 0 16 -16 17 -90 5z"/>
<path d="M2660 1582 c-13 -10 -21 -23 -19 -30 2 -6 18 2 37 19 35 31 19 41
-18 11z"/>
<path d="M1780 1540 c-37 -7 -117 -53 -137 -79 -9 -12 -9 -18 0 -23 9 -6 8 -8
-1 -8 -7 0 -10 -5 -7 -11 5 -7 15 -4 29 9 11 11 42 31 68 46 39 23 58 27 125
27 43 0 89 -2 103 -6 49 -13 55 -11 55 15 0 22 -5 25 -40 26 -22 1 -50 4 -63
8 -15 5 -24 3 -27 -6 -6 -16 -45 -22 -45 -7 0 6 -4 8 -9 5 -5 -4 -11 -3 -13 2
-1 4 -19 5 -38 2z"/>
<path d="M2084 1509 c-4 -7 0 -9 13 -5 14 5 21 -1 30 -24 13 -34 13 -33 -21
-20 -39 14 -31 2 9 -14 20 -9 35 -22 35 -32 0 -13 3 -14 13 -5 8 6 17 8 21 4
16 -17 -30 64 -48 84 -23 25 -41 29 -52 12z"/>
<path d="M2628 1470 c-2 -29 1 -50 7 -50 7 0 7 -3 0 -8 -14 -10 -17 -32 -5
-32 11 0 12 3 16 83 3 70 -13 77 -18 7z"/>
<path d="M52 1465 c-11 -14 -25 -25 -31 -25 -8 0 -9 -34 -5 -112 6 -115 14
-157 14 -77 0 58 15 83 25 41 7 -33 32 -49 49 -32 7 7 -5 24 -39 55 -36 33
-46 48 -38 56 6 6 9 18 6 26 -3 8 3 26 14 41 11 15 23 33 27 40 13 21 -2 13
-22 -13z"/>
<path d="M1810 1460 c-52 -6 -130 -37 -130 -52 0 -6 22 -8 58 -4 74 8 250 9
282 2 106 -25 130 -13 36 18 -26 9 -57 21 -67 26 -22 12 -116 17 -179 10z"/>
<path d="M140 1425 c-6 -8 -9 -19 -6 -24 4 -5 1 -13 -5 -17 -8 -5 -9 -3 -4 6
5 9 4 11 -3 6 -17 -10 -15 -26 3 -26 9 0 18 8 21 18 3 9 10 25 15 35 11 21 -4
23 -21 2z"/>
<path d="M2658 1387 c-2 -21 0 -43 4 -50 11 -17 10 -75 -1 -81 -5 -4 -14 6
-20 21 -9 25 -10 23 -7 -19 2 -27 0 -48 -4 -48 -4 0 -6 -23 -4 -50 2 -35 -1
-56 -11 -68 -44 -51 -128 -133 -179 -174 -32 -27 -54 -48 -49 -48 5 0 14 5 20
11 9 9 11 7 6 -9 -3 -11 -11 -18 -18 -16 -7 3 -19 -1 -26 -9 -8 -7 -19 -12
-25 -10 -13 4 -176 -146 -170 -156 7 -10 -72 -84 -109 -104 -16 -9 -55 -39
-85 -66 -30 -28 -58 -51 -61 -51 -4 0 -10 12 -14 27 -6 24 -8 25 -16 11 -7
-13 -4 -23 11 -38 20 -20 23 -20 46 -5 14 9 49 37 79 63 107 93 187 157 203
164 9 3 40 30 67 58 28 29 67 61 87 71 20 10 45 31 55 46 10 14 41 49 68 77
28 28 63 66 78 85 66 80 30 3 -79 -168 -33 -52 -43 -75 -34 -81 8 -5 -1 -18
-27 -40 -21 -18 -31 -29 -23 -25 8 3 4 -3 -10 -15 -14 -13 -24 -28 -22 -35 1
-6 -8 -20 -20 -31 l-23 -19 20 24 c20 23 20 23 0 20 -11 -2 -27 -19 -36 -37
-9 -18 -29 -45 -44 -60 -15 -15 -34 -37 -42 -50 -9 -12 -21 -22 -28 -22 -7 0
-36 -23 -64 -51 -43 -42 -54 -49 -66 -39 -11 9 -15 9 -15 1 0 -6 5 -11 11 -11
6 0 -4 -18 -21 -40 -17 -22 -36 -38 -41 -34 -5 3 -9 0 -9 -5 0 -20 15 -11 85
54 98 92 105 81 10 -15 -44 -44 -76 -80 -71 -80 9 0 60 51 166 167 104 113
136 146 167 173 48 42 177 228 142 205 -8 -5 -7 -3 3 6 9 9 14 19 11 23 -4 3
-1 6 5 6 7 0 12 6 12 14 0 8 11 27 24 43 54 65 97 159 105 235 5 46 5 78 -2
86 -14 17 -7 21 26 15 15 -3 37 -16 50 -30 20 -21 68 -53 81 -53 5 0 -18 64
-34 92 -5 10 -7 24 -4 32 5 13 -21 76 -31 76 -3 0 2 -16 10 -36 17 -42 18 -47
6 -40 -5 4 -21 38 -36 77 -15 38 -29 68 -31 66 -10 -9 38 -136 67 -180 17 -26
30 -50 27 -52 -2 -2 -22 11 -45 28 -29 22 -44 42 -49 65 -3 18 -14 58 -24 89
l-17 57 -5 -37z"/>
<path d="M287 1372 c-10 -10 -17 -28 -17 -40 0 -12 -6 -21 -12 -19 -7 1 -14
-8 -16 -20 -2 -13 0 -23 4 -23 11 0 33 34 34 51 0 9 9 28 21 43 23 29 11 36
-14 8z"/>
<path d="M1853 1363 c-65 -3 -83 -7 -83 -18 0 -8 6 -15 13 -15 8 0 7 -3 -3 -9
-8 -6 -18 -7 -24 -4 -5 3 -6 1 -2 -5 5 -8 13 -9 25 -3 27 15 181 20 181 7 0
-6 8 -2 16 9 8 11 20 19 26 17 5 -1 8 3 6 10 -5 14 -32 16 -155 11z"/>
<path d="M2800 1317 c0 -4 9 -37 21 -73 12 -36 19 -76 17 -89 -4 -20 0 -24 28
-30 19 -3 38 -14 44 -25 6 -11 16 -17 25 -14 16 7 45 -12 45 -28 0 -13 -39 0
-85 29 l-40 26 24 -26 c20 -22 62 -41 96 -42 6 0 13 -4 17 -10 4 -5 8 -1 8 11
0 20 -49 67 -97 92 -12 7 -27 29 -34 49 -12 38 -69 145 -69 130z"/>
<path d="M1893 1280 c-7 -11 -19 -17 -27 -14 -20 8 -44 -21 -56 -66 -9 -35
-14 -40 -40 -40 -31 0 -41 -17 -15 -26 17 -7 85 32 85 49 0 6 11 -5 25 -24 24
-36 79 -62 68 -32 -3 8 -12 12 -19 9 -22 -8 -32 24 -27 82 5 43 9 52 25 52 11
0 18 5 16 12 -7 20 -22 19 -35 -2z"/>
<path d="M1739 1264 l-24 -13 25 0 c14 -1 31 3 38 8 25 15 -11 20 -39 5z"/>
<path d="M1611 1245 c0 -5 6 -21 14 -35 19 -33 19 -43 -1 -36 -25 9 -11 -17
16 -31 32 -16 43 -38 26 -52 -11 -9 -18 -6 -36 18 -18 27 -24 29 -40 18 -19
-11 -18 -13 14 -29 33 -17 51 -42 41 -58 -3 -5 -21 -62 -41 -127 -19 -65 -39
-127 -44 -138 -16 -34 -81 -225 -111 -329 -39 -131 -48 -199 -47 -334 0 -103
9 -137 25 -96 5 13 7 13 14 2 6 -9 9 -7 9 10 0 12 -6 22 -12 22 -9 0 -8 3 2
10 13 8 13 14 1 42 -25 59 -10 199 35 345 16 52 39 75 30 31 -3 -13 -8 -45
-12 -73 -10 -75 -12 -86 -20 -135 -4 -25 -3 -42 1 -38 7 6 20 56 29 115 2 11
7 32 12 45 4 12 8 32 10 43 5 31 21 117 28 145 4 14 9 43 12 65 4 22 22 101
41 175 19 74 37 145 40 158 3 12 10 22 15 22 16 0 46 43 41 57 -8 20 -23 15
-23 -6 0 -11 -5 -23 -12 -27 -8 -5 -9 2 -4 27 18 94 59 43 69 -86 2 -28 9 -60
15 -71 6 -12 9 -24 6 -27 -3 -3 1 -18 9 -34 15 -27 16 -26 16 40 0 45 -4 65
-11 61 -7 -5 -9 4 -6 27 4 22 -1 47 -13 71 -14 27 -16 38 -6 42 8 4 6 9 -7 18
-43 29 -76 60 -76 71 0 7 -11 30 -25 52 -13 22 -24 36 -24 30z"/>
<path d="M52 1193 c-30 -77 -44 -192 -22 -178 6 3 10 21 10 38 0 18 9 62 19
100 19 66 14 94 -7 40z"/>
<path d="M1336 1181 c-10 -11 -15 -25 -11 -32 6 -8 13 -3 22 15 18 34 12 43
-11 17z"/>
<path d="M1570 1172 c-8 -2 -23 -11 -32 -20 -10 -8 -40 -16 -68 -18 -27 -2
-68 -14 -90 -25 -25 -13 -49 -19 -64 -15 -21 5 -23 3 -18 -20 4 -22 9 -25 30
-19 13 3 41 17 61 31 19 13 49 24 66 24 62 0 143 34 134 57 -2 5 -11 8 -19 5z"/>
<path d="M258 1106 c-10 -7 -21 -28 -24 -47 -12 -59 -41 -106 -74 -117 -41
-15 -38 -22 8 -19 31 2 40 7 54 37 10 19 24 35 30 35 9 0 13 15 13 43 0 42 14
61 43 62 6 0 12 4 12 8 0 13 -44 12 -62 -2z"/>
<path d="M300 1084 c0 -3 7 -12 16 -21 8 -9 14 -30 13 -47 -1 -17 2 -39 6 -49
8 -19 -10 -47 -30 -47 -15 0 -25 -22 -25 -54 0 -12 -4 -26 -9 -31 -10 -12 -58
-166 -65 -215 -4 -19 -11 -71 -17 -115 -6 -46 -17 -85 -25 -91 -8 -7 -14 -16
-13 -20 4 -26 -2 -45 -13 -38 -7 4 -10 4 -6 -1 4 -4 3 -15 -1 -24 -5 -9 -6
-34 -2 -55 5 -34 2 -43 -21 -67 -16 -15 -28 -38 -27 -51 l1 -23 7 24 c3 14 21
32 39 40 17 9 32 22 32 29 0 6 4 12 9 12 5 0 42 34 84 75 55 55 82 75 101 75
25 0 30 8 27 40 -2 13 -1 13 8 0 9 -13 12 -12 25 5 9 11 16 28 16 39 0 16 122
212 140 226 4 3 11 12 16 22 19 35 139 168 151 168 7 0 13 6 13 14 0 12 49 33
150 64 19 6 71 16 115 22 44 6 104 22 134 36 30 13 72 27 94 31 31 5 36 8 22
15 -20 12 -70 4 -127 -21 -24 -11 -94 -27 -156 -35 -62 -9 -125 -22 -140 -28
-82 -33 -100 -44 -135 -77 -72 -67 -156 -177 -259 -335 -14 -22 -31 -47 -38
-53 -6 -7 -8 -13 -6 -13 3 0 -2 -13 -12 -29 -17 -28 -118 -111 -135 -111 -4 0
-6 -4 -3 -8 7 -11 -22 -52 -36 -52 -5 0 -19 -11 -30 -25 -28 -36 -39 -31 -32
17 4 24 7 51 8 61 1 10 7 22 13 25 5 4 13 32 16 62 8 66 58 243 81 289 10 18
15 39 12 46 -3 8 -1 15 3 17 5 2 25 37 46 78 33 66 37 80 32 128 -3 29 -11 60
-18 68 -11 13 -49 20 -49 8z"/>
<path d="M53 1010 c-18 -8 -33 -22 -33 -30 -7 -116 -7 -115 27 -118 18 -2 45
4 60 12 l28 15 -46 1 c-33 0 -49 5 -53 16 -9 23 -9 24 27 25 17 0 25 3 17 6
-17 6 -40 32 -40 45 0 5 14 15 31 22 17 7 28 15 23 18 -5 2 -24 -3 -41 -12z"/>
<path d="M1184 996 c-35 -23 -149 -59 -184 -58 -19 0 -51 -2 -70 -5 l-35 -6
29 -8 c18 -5 35 -4 42 1 7 7 15 6 23 -4 10 -12 19 -10 62 11 28 13 80 32 115
41 35 9 65 21 68 27 6 15 -28 16 -50 1z"/>
<path d="M1287 942 c-10 -10 -17 -25 -17 -33 0 -16 -56 -69 -73 -69 -8 0 -8
-3 0 -11 17 -17 46 -2 74 39 23 32 46 92 36 92 -2 0 -11 -8 -20 -18z"/>
<path d="M1670 944 c0 -5 16 -54 35 -109 33 -94 39 -155 15 -155 -4 0 -7 -11
-7 -25 0 -14 3 -25 7 -25 4 0 13 -26 19 -58 6 -32 18 -67 27 -78 14 -18 15
-17 10 16 -10 67 -17 94 -28 108 -13 16 -17 62 -6 62 5 0 11 -7 15 -16 4 -12
8 -11 17 8 10 20 4 41 -36 142 -44 109 -68 156 -68 130z"/>
<path d="M151 871 c-23 -28 -42 -41 -69 -46 -70 -12 -70 -11 -69 -68 l2 -52 9
38 c8 31 15 39 39 44 34 7 145 107 129 117 -5 3 -24 -12 -41 -33z"/>
<path d="M198 855 c-38 -26 -58 -53 -58 -77 0 -7 16 5 35 26 25 28 35 35 35
22 0 -25 16 -11 28 24 13 37 7 37 -40 5z"/>
<path d="M1095 807 c-45 -40 -71 -56 -102 -60 -24 -4 -44 -3 -48 3 -3 5 -12 7
-20 3 -17 -6 -20 8 -4 24 8 8 8 13 -1 18 -24 15 -37 -25 -28 -84 5 -31 7 -74
4 -96 -6 -37 -5 -39 9 -21 8 11 15 38 16 60 1 48 5 75 13 84 3 3 6 0 6 -7 0
-9 13 -11 47 -6 47 6 94 34 140 82 14 15 28 20 39 16 14 -5 16 -3 11 11 -4 10
-7 20 -7 22 0 12 -21 -2 -75 -49z"/>
<path d="M741 837 c-11 -14 -11 -21 4 -43 11 -17 13 -30 7 -36 -6 -6 -13 1
-20 21 -6 17 -16 31 -21 31 -16 0 -13 -26 3 -39 8 -6 17 -32 20 -56 8 -52 24
-69 18 -19 -2 18 -1 41 2 50 9 23 32 2 39 -36 4 -16 18 -47 32 -70 14 -22 25
-46 25 -54 0 -8 5 -18 11 -22 16 -9 5 34 -28 111 -14 33 -29 70 -34 83 -5 12
-15 22 -23 22 -10 0 -16 13 -18 37 -3 32 -5 35 -17 20z"/>
<path d="M2991 803 c0 -12 -5 -25 -11 -28 -5 -3 -10 -16 -10 -28 1 -20 2 -20
16 6 8 16 13 38 11 50 l-4 22 -2 -22z"/>
<path d="M30 658 c-18 -29 -29 -355 -11 -344 7 4 10 59 10 152 0 111 4 153 16
176 17 36 18 38 7 38 -4 0 -14 -10 -22 -22z"/>
<path d="M600 645 c-17 -20 -7 -28 30 -28 39 0 50 11 26 29 -25 18 -40 18 -56
-1z"/>
<path d="M565 586 c-18 -13 -18 -15 3 -50 12 -21 22 -47 22 -59 0 -18 2 -19
10 -7 12 19 3 49 -23 78 l-20 22 21 0 c12 0 22 4 22 9 0 17 -17 21 -35 7z"/>
<path d="M1117 546 c-9 -13 -23 -31 -33 -40 -9 -9 -14 -20 -10 -23 3 -4 7 -4
9 -2 2 2 18 23 36 47 18 23 28 42 23 42 -5 0 -17 -11 -25 -24z"/>
<path d="M1178 508 c-51 -78 -75 -118 -98 -163 -11 -22 -31 -53 -44 -70 -21
-27 -25 -28 -42 -15 -17 14 -18 14 -6 -2 8 -9 11 -22 7 -28 -10 -16 6 -12 42
12 20 14 36 34 40 51 3 15 9 27 12 27 4 0 13 17 20 37 8 21 31 63 52 94 22 31
39 60 39 64 0 4 10 15 23 26 18 15 19 18 5 19 -9 0 -31 -23 -50 -52z"/>
<path d="M1804 537 c3 -10 6 -21 6 -23 0 -3 6 -2 13 2 6 4 3 -2 -7 -14 -26
-29 -14 -40 14 -12 21 21 21 58 -1 44 -6 -3 -16 0 -21 7 -8 11 -8 10 -4 -4z"/>
<path d="M491 523 c-8 -17 -5 -25 17 -46 38 -36 61 -22 31 19 -36 47 -37 47
-48 27z"/>
<path d="M2057 504 c-16 -14 -26 -29 -22 -32 3 -3 20 8 38 26 38 38 24 43 -16
6z"/>
<path d="M146 498 c-8 -33 -7 -50 3 -44 11 7 20 66 10 66 -3 0 -9 -10 -13 -22z"/>
<path d="M467 446 c-4 -9 3 -16 18 -19 32 -6 39 3 17 19 -22 17 -29 17 -35 0z"/>
<path d="M1013 396 c-46 -67 -55 -88 -25 -59 20 20 76 113 70 118 -1 2 -22
-25 -45 -59z"/>
<path d="M1790 438 c0 -7 11 -18 25 -25 14 -6 25 -7 25 -2 0 5 -4 9 -10 9 -5
0 -7 7 -4 15 4 10 0 15 -15 15 -12 0 -21 -6 -21 -12z"/>
<path d="M1715 422 c-16 -11 -41 -40 -53 -66 -25 -48 -63 -83 -82 -71 -5 3
-10 1 -10 -5 0 -6 -13 -23 -30 -37 -33 -27 -39 -45 -14 -41 22 4 28 -36 9 -56
-20 -20 -20 -23 17 -56 23 -22 29 -33 21 -41 -11 -11 -6 -49 6 -49 3 0 19 11
35 24 l30 23 -43 41 c-37 35 -41 43 -32 61 8 14 8 22 0 27 -6 4 -7 9 -2 13 5
3 29 34 53 69 45 65 81 92 122 92 22 0 33 -5 87 -38 21 -13 21 -13 4 20 -13
25 -24 33 -43 33 -20 0 -25 5 -24 23 1 25 -11 30 -19 8 -7 -17 -47 -41 -47
-28 0 6 14 24 32 41 36 35 28 40 -17 13z"/>
<path d="M1890 433 c0 -5 7 -18 15 -30 8 -11 16 -36 17 -54 1 -19 10 -47 20
-63 19 -33 16 -46 -11 -46 -10 0 -24 -12 -31 -27 l-13 -28 -11 28 c-13 36 -24
35 -18 -3 2 -16 8 -30 13 -30 5 0 9 -8 9 -19 0 -22 -76 -111 -95 -111 -7 0
-15 -11 -17 -25 -4 -21 -1 -25 18 -25 33 0 127 134 119 171 -4 17 0 30 11 40
16 13 17 11 12 -13 -3 -16 -1 -28 3 -28 5 0 9 6 9 14 0 8 3 16 8 18 4 2 18 15
30 30 l24 26 -21 21 c-11 11 -23 33 -27 48 -13 53 -64 138 -64 106z"/>
<path d="M1591 357 c-24 -56 -24 -57 -11 -57 5 0 13 12 16 28 4 15 11 32 16
39 6 7 8 18 5 25 -2 7 -14 -9 -26 -35z"/>
<path d="M432 338 c-2 -29 1 -47 6 -44 14 9 20 75 8 86 -8 5 -12 -8 -14 -42z"/>
<path d="M309 273 c-19 -21 -20 -25 -6 -20 10 4 25 7 33 7 8 0 14 7 14 16 0 8
5 12 10 9 6 -3 10 -1 10 4 0 21 -37 11 -61 -16z"/>
<path d="M22 200 c-15 -24 -17 -200 -2 -200 6 0 11 17 12 38 2 51 5 182 4 182
-1 0 -7 -9 -14 -20z"/>
</g>
</svg>
