<?xml version="1.0" standalone="no"?>
<!DOCTYPE svg PUBLIC "-//W3C//DTD SVG 20010904//EN"
 "http://www.w3.org/TR/2001/REC-SVG-20010904/DTD/svg10.dtd">
<svg version="1.0" xmlns="http://www.w3.org/2000/svg"
 width="300.000000pt" height="225.000000pt" viewBox="0 0 300.000000 225.000000"
 preserveAspectRatio="xMidYMid meet">
<metadata>
Created by potrace 1.10, written by Peter Selinger 2001-2011
</metadata>
<g transform="translate(0.000000,225.000000) scale(0.100000,-0.100000)"
fill="#000000" stroke="none">
<path d="M985 1824 c-235 -38 -435 -184 -535 -389 -51 -104 -70 -187 -70 -309
0 -123 19 -204 73 -316 33 -69 58 -102 132 -176 73 -74 106 -98 175 -132 183
-90 347 -102 541 -42 35 11 93 36 129 57 84 49 206 170 253 251 41 71 42 72
25 72 -7 0 -28 -28 -47 -62 -41 -74 -155 -190 -233 -236 -102 -60 -189 -85
-318 -90 -140 -5 -220 11 -337 69 -153 76 -277 218 -337 388 -27 78 -30 98
-31 211 0 143 20 227 82 340 55 100 179 217 284 269 115 56 184 72 309 72 125
0 227 -26 335 -85 87 -49 209 -170 250 -248 17 -32 36 -58 43 -58 18 0 16 7
-33 86 -88 140 -237 253 -400 304 -69 21 -226 34 -290 24z"/>
<path d="M904 1346 c-17 -8 -44 -31 -60 -51 -39 -52 -46 -152 -15 -212 50 -99
182 -118 269 -39 35 32 35 34 14 40 -16 6 -31 0 -53 -18 -58 -49 -151 -29
-183 39 -30 63 -23 67 126 64 l133 -2 -3 39 c-4 50 -31 102 -65 128 -34 25
-121 31 -163 12z m142 -60 c21 -21 34 -44 34 -60 l0 -26 -110 0 c-60 0 -110 2
-110 5 0 2 7 23 16 45 31 76 112 94 170 36z"/>
<path d="M1265 1343 c-65 -34 -83 -66 -43 -76 14 -4 26 -1 31 8 12 22 62 45
95 45 43 0 73 -29 75 -70 l2 -35 -71 -6 c-112 -10 -164 -48 -164 -119 0 -48
23 -77 71 -90 46 -13 93 -3 139 30 l30 21 0 -25 c0 -21 5 -26 25 -26 l25 0 0
134 c0 74 -4 146 -10 160 -22 59 -135 86 -205 49z m165 -193 c0 -69 -45 -110
-120 -110 -40 0 -70 26 -70 60 0 41 70 77 153 79 35 1 37 -1 37 -29z"/>
<path d="M1624 1346 c-62 -27 -82 -91 -44 -139 15 -18 46 -34 105 -52 91 -28
115 -48 95 -85 -6 -11 -23 -22 -38 -26 -15 -3 -32 -7 -39 -9 -22 -7 -80 15
-102 39 -19 20 -27 23 -41 13 -24 -15 -12 -38 36 -68 75 -46 200 -22 232 45
30 60 -7 105 -112 136 -104 32 -127 59 -86 100 30 30 100 27 138 -5 25 -21 32
-22 47 -11 16 12 16 13 -1 31 -43 43 -130 57 -190 31z"/>
<path d="M1880 1345 c0 -7 30 -85 66 -174 60 -149 65 -165 54 -192 -15 -36
-41 -51 -78 -47 -22 2 -28 -1 -30 -21 -4 -23 -2 -24 48 -19 34 4 59 12 73 26
19 20 188 428 180 436 -2 2 -14 1 -26 -1 -18 -4 -31 -27 -72 -139 -27 -74 -52
-134 -55 -134 -3 0 -27 61 -54 134 -46 125 -51 134 -78 138 -17 3 -28 0 -28
-7z"/>
</g>
</svg>
